<?xml version="1.0" standalone="no"?>
<!DOCTYPE svg PUBLIC "-//W3C//DTD SVG 20010904//EN"
 "http://www.w3.org/TR/2001/REC-SVG-20010904/DTD/svg10.dtd">
<svg version="1.0" xmlns="http://www.w3.org/2000/svg"
 width="800.000000pt" height="800.000000pt" viewBox="0 0 800.000000 800.000000"
 preserveAspectRatio="xMidYMid meet">

<g transform="translate(0.000000,800.000000) scale(0.100000,-0.100000)"
fill="#000000" stroke="none">
<path d="M2070 6253 c-284 -26 -425 -52 -605 -110 -593 -191 -1037 -620 -1251
-1211 -216 -594 -215 -1499 1 -2077 168 -451 448 -766 866 -976 458 -229 1094
-301 1664 -188 55 11 219 49 365 84 345 83 374 88 473 83 103 -5 171 -35 245
-108 44 -43 56 -50 91 -50 l41 0 0 905 0 904 128 3 127 3 0 70 0 70 -922 3
-923 2 0 -75 0 -75 206 0 205 0 -4 -707 c-4 -771 -3 -767 -62 -883 -53 -105
-140 -140 -362 -147 -159 -6 -241 6 -338 47 -119 51 -245 163 -333 298 -165
253 -256 584 -304 1102 -18 203 -18 1280 0 1475 36 377 92 637 182 853 66 157
125 247 235 357 83 83 115 108 185 143 129 64 190 77 360 77 122 0 158 -4 225
-24 96 -28 222 -92 307 -158 218 -167 501 -553 740 -1010 l70 -133 59 0 60 0
-6 108 c-7 134 -45 1163 -45 1232 l0 50 -38 0 c-33 0 -40 -4 -57 -36 -25 -47
-68 -82 -110 -90 -44 -8 -110 4 -415 77 -281 66 -446 94 -645 109 -131 9 -335
11 -415 3z"/>
<path d="M4560 6120 l0 -70 190 0 190 0 0 -2105 0 -2105 -190 0 -190 0 0 -70
0 -70 1215 0 1215 0 0 70 0 70 -400 0 -400 0 0 981 0 981 213 -5 c175 -4 224
-8 279 -25 124 -38 201 -84 284 -172 61 -65 88 -105 139 -209 55 -113 80 -184
124 -349 l36 -137 53 -3 52 -3 0 955 0 956 -45 0 c-28 0 -47 -5 -49 -12 -89
-341 -162 -487 -318 -640 -59 -58 -98 -87 -160 -117 -129 -63 -173 -71 -405
-71 l-203 0 0 1040 0 1040 143 0 c412 -1 696 -67 912 -213 216 -146 397 -426
560 -867 l43 -115 56 -3 56 -3 0 38 c0 21 -14 310 -30 643 -16 333 -30 617
-30 633 l0 27 -1670 0 -1670 0 0 -70z"/>
</g>
</svg>
