<?xml version="1.0" standalone="no"?>
<!DOCTYPE svg PUBLIC "-//W3C//DTD SVG 20010904//EN"
 "http://www.w3.org/TR/2001/REC-SVG-20010904/DTD/svg10.dtd">
<svg version="1.0" xmlns="http://www.w3.org/2000/svg"
 width="500.000000pt" height="500.000000pt" viewBox="0 0 500.000000 500.000000"
 preserveAspectRatio="xMidYMid meet">

<g transform="translate(0.000000,500.000000) scale(0.100000,-0.100000)"
fill="#000000" stroke="none">
<path d="M2325 4994 c-258 -26 -500 -79 -691 -149 -594 -220 -1104 -682 -1379
-1250 -115 -237 -194 -497 -232 -760 -23 -165 -23 -505 0 -670 64 -444 240
-859 515 -1214 83 -108 291 -315 400 -401 282 -221 623 -389 957 -474 199 -51
360 -70 605 -70 245 0 406 19 605 70 334 85 675 253 957 474 109 86 317 293
400 401 275 355 450 767 515 1214 24 165 24 505 0 670 -107 732 -494 1344
-1114 1758 -125 83 -349 197 -494 251 -138 51 -346 104 -501 127 -127 19 -449
33 -543 23z m-237 -1236 c7 -7 12 -35 12 -63 0 -30 6 -60 16 -73 13 -19 24
-22 91 -22 119 0 113 17 113 -303 0 -238 -2 -273 -17 -289 -15 -17 -37 -18
-289 -18 -313 0 -304 -2 -304 82 0 70 -18 88 -87 88 -40 0 -58 5 -73 20 -19
19 -20 33 -20 204 0 214 -1 216 -82 216 -71 0 -88 -17 -88 -91 0 -71 -19 -89
-95 -89 -28 0 -56 -5 -63 -12 -9 -9 -12 -245 -12 -1000 0 -966 0 -988 19 -998
11 -5 44 -10 73 -10 30 0 59 -5 66 -12 7 -7 12 -36 12 -66 0 -82 9 -92 83 -92
36 0 68 5 75 12 17 17 17 619 0 636 -7 7 -37 12 -67 12 -90 0 -91 1 -91 218 0
159 2 188 17 204 15 17 43 18 461 18 400 0 447 -2 464 -17 17 -15 18 -48 18
-620 0 -590 0 -603 -20 -623 -18 -18 -33 -20 -197 -20 -210 0 -213 1 -213 90
0 68 -11 80 -75 88 -31 3 -52 0 -70 -12 -22 -14 -25 -24 -25 -71 0 -42 -5 -60
-20 -75 -19 -19 -33 -20 -469 -20 -516 0 -481 -6 -481 90 0 72 -19 90 -95 90
-70 0 -78 8 -83 82 -2 35 -9 69 -14 76 -6 7 -34 12 -69 12 -39 0 -63 5 -73 16
-14 14 -16 118 -16 998 0 775 3 986 13 994 6 5 38 12 69 14 75 6 88 18 88 82
0 76 18 96 87 96 77 0 93 16 93 90 0 31 5 61 12 68 17 17 1309 17 1326 0z
m2366 -4 c14 -13 16 -61 16 -374 0 -313 -2 -361 -16 -374 -13 -14 -54 -16
-293 -16 -202 0 -280 3 -289 12 -7 7 -12 37 -12 67 0 75 -16 91 -91 91 -87 0
-89 5 -89 227 0 210 -1 213 -81 213 -36 0 -54 -5 -69 -20 -19 -19 -20 -33 -20
-486 0 -302 4 -472 10 -485 10 -18 24 -19 318 -19 250 0 312 -3 328 -14 17
-13 19 -27 19 -159 0 -107 -3 -148 -14 -160 -12 -15 -47 -17 -317 -17 -291 0
-305 -1 -324 -20 -20 -20 -20 -33 -20 -579 l0 -560 -22 -15 c-32 -23 -713 -24
-744 -2 -19 14 -19 39 -19 1344 0 1112 2 1332 14 1345 12 16 84 17 857 17 753
0 844 -2 858 -16z"/>
</g>
</svg>
