<?xml version="1.0" standalone="no"?>
<!DOCTYPE svg PUBLIC "-//W3C//DTD SVG 20010904//EN"
 "http://www.w3.org/TR/2001/REC-SVG-20010904/DTD/svg10.dtd">
<svg version="1.0" xmlns="http://www.w3.org/2000/svg"
 width="800.000000pt" height="800.000000pt" viewBox="0 0 800.000000 800.000000"
 preserveAspectRatio="xMidYMid meet">

<g transform="translate(0.000000,800.000000) scale(0.100000,-0.100000)"
fill="white" stroke="none">
<path d="M1882 6324 c-306 -39 -557 -113 -780 -230 -624 -327 -994 -905 -1087
-1699 -21 -179 -21 -723 0 -895 117 -964 609 -1551 1478 -1764 234 -58 347
-70 667 -70 279 -1 304 1 450 27 85 15 282 58 437 96 371 91 472 109 555 94
86 -14 154 -48 211 -105 44 -44 52 -48 97 -48 l50 0 0 915 0 915 125 0 126 0
-3 73 -3 72 -932 3 -933 2 0 -75 0 -75 205 0 205 0 0 -700 c0 -599 -2 -712
-16 -778 -43 -210 -134 -277 -394 -289 -366 -16 -598 131 -775 492 -119 243
-183 506 -227 935 -18 178 -18 1417 0 1590 20 183 59 417 93 546 103 398 275
655 520 776 115 57 212 78 363 78 261 0 474 -103 694 -335 189 -200 398 -510
592 -879 l72 -136 58 0 59 0 -6 128 c-3 70 -15 388 -27 707 l-21 580 -32 3
c-27 3 -35 -3 -62 -42 -17 -24 -43 -54 -57 -65 -41 -32 -121 -27 -324 20 -96
22 -222 51 -280 64 -272 62 -482 85 -775 84 -121 -1 -266 -7 -323 -15z"/>
<path d="M4567 6273 c-4 -3 -7 -37 -7 -75 l0 -68 195 0 195 0 0 -2130 0 -2130
-192 -2 -193 -3 -3 -72 -3 -73 1231 0 1231 0 -3 73 -3 72 -402 3 -403 2 0 991
0 991 218 -4 c188 -5 226 -8 287 -28 117 -37 196 -85 272 -163 134 -139 220
-330 303 -674 l11 -43 54 0 55 0 0 965 0 965 -47 0 -48 0 -31 -118 c-110 -408
-346 -673 -644 -721 -36 -6 -147 -11 -247 -11 l-183 0 0 1055 0 1055 163 0
c347 0 588 -45 791 -146 104 -53 145 -82 244 -178 157 -152 308 -414 437 -759
l48 -127 53 0 54 0 0 83 c1 100 -49 1199 -56 1245 l-5 32 -1683 0 c-925 0
-1686 -3 -1689 -7z"/>
</g>
</svg>
